<svg id="icons" enable-background="new 0 0 64 64" height="512" viewBox="0 0 64 64" width="512" xmlns="http://www.w3.org/2000/svg"><path d="m48.787 15.227-9.14-14.744c-.013-.021-.033-.031-.047-.05-.041-.057-.089-.102-.14-.148-.044-.041-.086-.082-.136-.113-.062-.039-.128-.063-.196-.088-.051-.019-.098-.038-.15-.048-.069-.014-.139-.011-.211-.009-.063.002-.123.004-.185.018-.022.006-.045 0-.067.007-.511.149-12.573 3.848-16.928 18.318 0 .001-.001.001-.001.002s0 .001 0 .002c-.003.009-.006.018-.009.026-.018.06-.01.118-.017.178-.008.068-.024.136-.019.203.006.063.032.119.05.179.019.063.028.129.059.188.028.055.074.097.112.146.041.052.074.109.126.152.048.041.11.064.166.096s.103.074.165.095l16.503 5.49-30.912 30.914c-.566.566-.879 1.32-.879 2.121s.313 1.555.879 2.121c.001.001.002.001.003.002l2.82 2.82c.002.002.002.004.004.006.585.585 1.353.877 2.121.877s1.536-.292 2.121-.877l24.621-24.622c.001-.001.002-.001.003-.002.397-.397 1.043-.396 1.438 0 .195.194.451.292.707.292s.513-.098.708-.293c.022-.022.03-.052.05-.075l5.079-5.079c.168.045.34.075.513.075.513 0 1.025-.195 1.416-.586l7.069-7.069c.78-.78.78-2.05 0-2.83zm-.777 16.17c-.004.004-.009.005-.013.009l-7.07-7.07 7.071-7.07 7.071 7.07h.001l-.001.002zm-8.022-26.569 6.742 10.877-7.488 7.487-12.588-4.188c3.735-11.082 12.897-14.042 13.285-14.161zm-1.613-2.602.533.859c-2.075.769-10.552 4.506-14.168 15.282l-.948-.315c3.633-10.789 12.091-14.844 14.583-15.826zm-.286 34.845c-.001.001-.001.002-.002.003l-24.622 24.623c-.39.39-1.021.39-1.411.002-.001-.001-.001-.002-.002-.003l-2.826-2.826c-.001-.001-.001-.002-.002-.003-.189-.188-.293-.438-.293-.705s.104-.518.293-.707l30.997-30.997 5.655 5.655-4.373 4.373c-1.118-.523-2.489-.336-3.414.585z"/></svg>